<?xml version="1.0" encoding="iso-8859-1"?>
<!-- Generator: Adobe Illustrator 19.0.0, SVG Export Plug-In . SVG Version: 6.00 Build 0)  -->
<svg version="1.1" id="Capa_1" xmlns="http://www.w3.org/2000/svg" xmlns:xlink="http://www.w3.org/1999/xlink" x="0px" y="0px"
	 viewBox="0 0 512.082 512.082" style="enable-background:new 0 0 512.082 512.082;" xml:space="preserve">
<path style="fill:#FFC107;" d="M98.601,374.113c-12.237-21.323-18.638-45.495-18.56-70.08c0.123-79.478,64.522-143.877,144-144h16
	v80l128-112l-128-112v80h-16C109.166,96.03,16.039,189.153,16.036,304.028c-0.001,38.409,10.634,76.069,30.725,108.805
	L98.601,374.113z"/>
<path d="M46.761,428.833c-1.008-0.006-2.014-0.092-3.008-0.256c-4.419-0.85-8.275-3.522-10.624-7.36
	C-31.59,315.784,1.415,177.849,106.848,113.13c35.258-21.643,75.822-33.099,117.193-33.097v-64
	c0.009-8.837,7.18-15.993,16.016-15.984c3.866,0.004,7.6,1.408,10.512,3.952l128,112c6.645,5.825,7.31,15.934,1.485,22.579
	c-0.462,0.527-0.958,1.023-1.485,1.485l-128,112c-6.654,5.814-16.762,5.134-22.576-1.52c-2.544-2.911-3.948-6.645-3.952-10.512v-64
	c-70.692,0-128,57.308-128,128c-0.043,21.786,5.629,43.202,16.448,62.112c4.035,7.027,2.179,15.961-4.32,20.8l-51.84,38.688
	C53.568,427.703,50.212,428.826,46.761,428.833z M224.041,112.033c-106.039-0.007-192.005,85.949-192.012,191.988
	c-0.002,29.494,6.791,58.592,19.852,85.036l26.304-19.648c-9.338-20.529-14.161-42.823-14.144-65.376
	c0.106-88.322,71.678-159.894,160-160h16c8.837,0,16,7.163,16,16v44.8l87.68-76.8l-87.68-76.8v44.8c0,8.837-7.163,16-16,16H224.041z
	"/>
<path style="fill:#FFC107;" d="M465.321,99.233c60.089,97.906,29.431,225.987-68.475,286.075
	c-32.736,20.091-70.395,30.725-108.805,30.725h-16v80l-128-112l128-112v80h16c79.478-0.123,143.877-64.522,144-144
	c0.078-24.585-6.323-48.757-18.56-70.08L465.321,99.233z"/>
<path d="M272.041,512.033c-3.874-0.005-7.615-1.414-10.528-3.968l-128-112c-6.645-5.825-7.31-15.934-1.485-22.579
	c0.462-0.527,0.958-1.023,1.485-1.485l128-112c6.654-5.814,16.762-5.134,22.576,1.52c2.544,2.911,3.948,6.645,3.952,10.512v64
	c70.692,0,128-57.308,128-128c0.043-21.776-5.628-43.182-16.448-62.08c-4.035-7.027-2.179-15.961,4.32-20.8l51.84-38.72
	c3.585-2.72,8.161-3.779,12.576-2.912c4.413,0.843,8.269,3.502,10.624,7.328c64.719,105.433,31.714,243.368-73.719,308.087
	c-35.258,21.643-75.822,33.099-117.193,33.097v64C288.041,504.869,280.877,512.033,272.041,512.033z M168.361,384.033l87.68,76.8
	v-44.8c0-8.837,7.163-16,16-16h16c106.039-0.002,191.998-85.965,191.996-192.004c-0.001-29.477-6.788-58.557-19.836-84.988
	l-26.304,19.648c9.337,20.518,14.161,42.801,14.144,65.344c-0.106,88.322-71.678,159.894-160,160h-16c-8.837,0-16-7.163-16-16v-44.8
	L168.361,384.033z"/>
<g>
</g>
<g>
</g>
<g>
</g>
<g>
</g>
<g>
</g>
<g>
</g>
<g>
</g>
<g>
</g>
<g>
</g>
<g>
</g>
<g>
</g>
<g>
</g>
<g>
</g>
<g>
</g>
<g>
</g>
</svg>
